<?xml version="1.0" encoding="utf-8"?>
<svg id="master-artboard" viewBox="0 0 600 600" version="1.1" xmlns="http://www.w3.org/2000/svg" x="0px" y="0px" style="enable-background:new 0 0 1400 980;" width="600px" height="600px"><g transform="matrix(2.563279867172241, 0, 0, 2.563279867172241, -270.8544111367614, -460.17766333205265)"><path d="M 270.618004 262.529999 A 47.581001 47.581001 0 0 1 223.037003 310.111 A 47.581001 47.581001 0 0 1 175.456001 262.529999 A 47.581001 47.581001 0 0 1 223.037003 214.948997 A 47.581001 47.581001 0 0 1 270.618004 262.529999 Z" style="stroke: rgb(255, 153, 64); fill: none;"/><path d="M 139.773 254.429 L 219.852 402.462 L 59.694 402.462 L 139.773 254.429 Z" style="paint-order: fill; stroke-dasharray: 4px; fill: none; stroke: rgb(255, 153, 64);" transform="matrix(0.99999, 0.004476, -0.004476, 0.99999, 83.861245, -41.06429)"/><path d="M 93.011 150.566 L 146.298 238.169 L 39.723 238.169 L 93.011 150.566 Z" style="paint-order: fill; fill: none; stroke-dasharray: 4px; stroke: rgb(255, 153, 64);" transform="matrix(0.99999, 0.004476, -0.004476, 0.99999, 128.464235, 102.117296)"/><path d="M 310.940987 284.647003 A 47.581001 47.581001 0 0 1 263.359985 332.228004 A 47.581001 47.581001 0 0 1 215.778984 284.647003 A 47.581001 47.581001 0 0 1 263.359985 237.066002 A 47.581001 47.581001 0 0 1 310.940987 284.647003 Z" style="stroke: rgb(255, 153, 64); fill: none;"/><path d="M 310.894997 335.515015 A 47.581001 47.581001 0 0 1 263.313995 383.096016 A 47.581001 47.581001 0 0 1 215.732994 335.515015 A 47.581001 47.581001 0 0 1 263.313995 287.934013 A 47.581001 47.581001 0 0 1 310.894997 335.515015 Z" style="stroke: rgb(255, 153, 64); fill: none;"/><path d="M 229.021996 334.924011 A 47.581001 47.581001 0 0 1 181.440994 382.505013 A 47.581001 47.581001 0 0 1 133.859993 334.924011 A 47.581001 47.581001 0 0 1 181.440994 287.34301 A 47.581001 47.581001 0 0 1 229.021996 334.924011 Z" style="stroke: rgb(255, 153, 64); fill: none;"/><path d="M 227.112999 289.69101 A 47.581001 47.581001 0 0 1 179.531998 337.272011 A 47.581001 47.581001 0 0 1 131.950996 289.69101 A 47.581001 47.581001 0 0 1 179.531998 242.110008 A 47.581001 47.581001 0 0 1 227.112999 289.69101 Z" style="stroke: rgb(255, 153, 64); fill: none;"/></g></svg>