<?xml version="1.0" encoding="utf-8"?>
<svg id="master-artboard" viewBox="0 0 600 600" version="1.1" xmlns="http://www.w3.org/2000/svg" x="0px" y="0px" style="enable-background:new 0 0 1400 980;" width="600px" height="600px"><rect id="ee-background" x="0" y="0" width="600" height="600" style="fill: none; fill-opacity: 0; pointer-events: none;"/><g transform="matrix(4.90000057220459, 0, 0, 4.90000057220459, -2789.364227294922, -75.70016860961914)"><g id="g-1" transform="matrix(1, 0, 0, 1, 0, 0)">
	<g id="g-2">
		<g transform="matrix(0.9999999999999999, 0, 0, 0.9999999999999999, -18.564949354511782, -18.564949354511786)"><path class="st0" d="M652,46c27.6,0,50,22.4,50,50s-22.4,50-50,50s-50-22.4-50-50S624.4,46,652,46z" style="fill:none; stroke: rgb(255, 131, 48); paint-order: fill; stroke-opacity: 0.47;" transform="matrix(0.9999999999999999, 0, 0, 0.9999999999999999, 0, -3.552713678800501e-15)"/></g>
	</g>
</g></g><g transform="matrix(2.483862400054932, 0, 0, 2.483862400054932, -1309.724365975682, 79.96651207664002)"><g id="g-5" transform="matrix(1, 0, 0, 1, 0, 0)">
	<g id="g-6">
		<path class="st0" d="M652,46c27.6,0,50,22.4,50,50s-22.4,50-50,50s-50-22.4-50-50S624.4,46,652,46z" style="fill: none; stroke: rgb(255, 131, 48); stroke-width: 1; fill-opacity: 1; paint-order: stroke;"/>
	</g>
</g></g><g transform="matrix(2.0939979553222656, 0, 0, 2.0939979553222656, 93.55618463078349, -508.5092004408634)"><g id="g-11" transform="matrix(1, 0, 0, 1, 0, 0)">
	<g id="g-12">
		<path class="st0" d="M103,336.5L53,424h100L103,336.5" style="fill:none; stroke: rgb(219, 127, 57); paint-order: fill;"/>
	</g>
</g></g></svg>