<?xml version="1.0" encoding="utf-8"?>
<svg id="master-artboard" viewBox="0 0 600 600" version="1.1" xmlns="http://www.w3.org/2000/svg" x="0px" y="0px" style="enable-background:new 0 0 1400 980;" width="600px" height="600px"><defs><linearGradient id="A" x1="0%" y1="0%" x2="100%" y2="100%"><stop offset="0%" stop-color="#fff0cd"/><stop offset="100%" stop-color="#ffb813"/></linearGradient></defs><g transform="matrix(0.9490320086479187, 0, 0, 0.9490320086479187, -226.7370806374547, -84.93010050439813)"><g stroke="url(#A)" fill="none"><path d="M 799.5 404.5 A 250 235 0 0 1 549.5 639.5 A 250 235 0 0 1 299.5 404.5 A 250 235 0 0 1 549.5 169.5 A 250 235 0 0 1 799.5 404.5 Z" style="stroke: rgb(219, 127, 57);"/><path d="M299.5 399.5q240-160 500 0" style="stroke: rgb(219, 127, 57);"/><path d="M1e-13 1e-13Q250 180 500 0" transform="translate(299.5 399.5)" style="stroke: rgb(219, 127, 57);"/><path d="M 629.5 404.5 A 80 75 0 0 1 549.5 479.5 A 80 75 0 0 1 469.5 404.5 A 80 75 0 0 1 549.5 329.5 A 80 75 0 0 1 629.5 404.5 Z" style="stroke: rgb(219, 127, 57);"/></g></g></svg>