<?xml version="1.0" encoding="utf-8"?>
<svg id="master-artboard" viewBox="0 0 218.79966735839844 39.75099563598633" version="1.1" xmlns="http://www.w3.org/2000/svg" x="0px" y="0px" style="enable-background:new 0 0 1400 980;" width="218.79966735839844px" height="39.75099563598633px"><rect id="ee-background" x="0" y="0" width="218.79966735839844" height="39.75099563598633" style="fill: white; fill-opacity: 0; pointer-events: none;"/><g transform="matrix(0.30322760343551636, 0, 0, 0.30322760343551636, -170.77622985839844, -8.556649208068848)"><g id="Layer_2" transform="matrix(1, 0, 0, 1, 0, 0)">
	<g id="Layer_1-2">
		<path class="st0" d="M652,46c27.6,0,50,22.4,50,50s-22.4,50-50,50s-50-22.4-50-50S624.4,46,652,46z" style="fill: rgb(51, 51, 51); fill-opacity: 0; stroke: rgb(0, 0, 0);"/>
	</g>
</g></g><g transform="matrix(0.30322760343551636, 0, 0, 0.30322760343551636, -130.4983077393988, -8.390716552734318)"><g id="g-1" transform="matrix(1, 0, 0, 1, 0, 0)">
	<g id="g-2">
		<path class="st0" d="M652,46c27.6,0,50,22.4,50,50s-22.4,50-50,50s-50-22.4-50-50S624.4,46,652,46z" style="fill: rgb(51, 51, 51); fill-opacity: 0; stroke: rgb(0, 0, 0);"/>
	</g>
</g></g><g transform="matrix(0.30322760343551636, 0, 0, 0.30322760343551636, -92.62402343749999, -8.39525032043457)"><g id="g-3" transform="matrix(1, 0, 0, 1, 0, 0)">
	<g id="g-4">
		<path class="st0" d="M652,46c27.6,0,50,22.4,50,50s-22.4,50-50,50s-50-22.4-50-50S624.4,46,652,46z" style="fill: rgb(51, 51, 51);"/>
	</g>
</g></g><g transform="matrix(0.30322760343551636, 0, 0, 0.30322760343551636, -51.736145019531136, -9.283131668372903)"><g id="g-5" transform="matrix(1, 0, 0, 1, 0, 0)">
	<g id="g-6">
		<path class="st0" d="M652,46c27.6,0,50,22.4,50,50s-22.4,50-50,50s-50-22.4-50-50S624.4,46,652,46z" style="fill: rgb(0, 0, 0); stroke: rgb(0, 0, 0); fill-opacity: 0;"/>
	</g>
</g></g><g transform="matrix(0.2972681039771332, 0, 0, 0.2972681039771332, -6.251578484866811, -8.784757182324043)"><g id="g-7" transform="matrix(1, 0, 0, 1, 0, 0)">
	<g id="g-8">
		<path class="st0" d="M652,46c27.6,0,50,22.4,50,50s-22.4,50-50,50s-50-22.4-50-50S624.4,46,652,46z" style="fill: rgb(191, 255, 0); stroke: rgb(0, 0, 0); fill-opacity: 0;"/>
	</g>
</g></g></svg>